<svg width="229" height="249" viewBox="0 0 229 249" fill="none" xmlns="http://www.w3.org/2000/svg">
<ellipse cx="170.584" cy="165.588" rx="170.584" ry="165.588" fill="#FF6FB5"/>
<ellipse cx="178.911" cy="169.394" rx="162.257" ry="161.781" fill="#FFC75F"/>
<ellipse cx="204.13" cy="190.569" rx="169.87" ry="165.826" fill="#FF6FB5"/>
<ellipse cx="206.271" cy="190.093" rx="71.1361" ry="62.5712" fill="#63401C"/>
<ellipse cx="208.174" cy="196.516" rx="60.1921" ry="56.1476" fill="#6A5ACD"/>
<path d="M71.207 214.876L83.7002 220.256C84.9774 220.806 85.6375 222.228 85.2334 223.559C84.7621 225.11 83.0506 225.912 81.5567 225.281L69.0265 219.988C67.7166 219.434 67.0358 217.981 67.4491 216.62C67.9307 215.034 69.6847 214.22 71.207 214.876Z" fill="#63401C"/>
<path d="M140.849 116.929L132.24 127.46C131.36 128.537 129.811 128.781 128.643 128.026C127.281 127.146 126.981 125.28 127.998 124.017L136.534 113.427C137.427 112.319 139.011 112.065 140.205 112.836C141.598 113.736 141.898 115.646 140.849 116.929Z" fill="#63401C"/>
<path d="M34.0232 147.188L47.5659 148.463C48.9504 148.593 50.016 149.743 50.041 151.133C50.0701 152.754 48.6884 154.044 47.0728 153.903L33.5216 152.723C32.105 152.599 31.0101 151.426 30.9846 150.004C30.9548 148.347 32.3731 147.033 34.0232 147.188Z" fill="#63401C"/>
<path d="M79.8099 78.2777L81.3277 64.7601C81.4829 63.3782 82.6515 62.3334 84.0422 62.3334C85.6639 62.3334 86.9285 63.7381 86.7587 65.3509L85.3348 78.8786C85.1859 80.2928 83.9933 81.3665 82.5713 81.3665C80.9139 81.3665 79.625 79.9248 79.8099 78.2777Z" fill="#63401C"/>
<path d="M168.43 38.9145L163.598 26.1995C163.103 24.8995 163.665 23.4359 164.902 22.7999C166.344 22.0582 168.111 22.729 168.697 24.2409L173.618 36.9221C174.133 38.2478 173.563 39.748 172.299 40.3984C170.825 41.1564 169.019 40.4638 168.43 38.9145Z" fill="#63401C"/>
<path d="M224.883 100.308L216.67 89.4652C215.83 88.3567 215.957 86.7943 216.965 85.8361C218.14 84.7187 220.025 84.8655 221.013 86.1513L229.302 96.9368C230.168 98.0643 230.043 99.6641 229.013 100.644C227.812 101.786 225.884 101.629 224.883 100.308Z" fill="#FFC75F"/>
<path d="M180.631 100.308L172.418 89.4652C171.578 88.3567 171.705 86.7943 172.713 85.8361C173.888 84.7187 175.773 84.8655 176.761 86.1513L185.05 96.9368C185.916 98.0643 185.792 99.6641 184.761 100.644C183.56 101.786 181.632 101.629 180.631 100.308Z" fill="#FFC75F"/>
<path d="M205.267 47.1682L199.412 59.446C198.813 60.7012 197.367 61.3064 196.053 60.8516C194.521 60.3212 193.785 58.5802 194.473 57.1116L200.243 44.7934C200.846 43.5057 202.324 42.8811 203.668 43.3462C205.234 43.8882 205.98 45.6722 205.267 47.1682Z" fill="#FFC75F"/>
<path d="M135.994 84.5036L122.937 88.3171C121.602 88.707 120.188 88.0317 119.651 86.7486C119.026 85.2524 119.834 83.5439 121.387 83.0784L134.418 79.1745C135.78 78.7664 137.23 79.4525 137.779 80.7645C138.418 82.2937 137.585 84.0389 135.994 84.5036Z" fill="#FFC75F"/>
<path d="M97.8376 137.898L89.6239 127.056C88.7842 125.947 88.9113 124.385 89.9192 123.427C91.0946 122.309 92.9789 122.456 93.9671 123.742L102.256 134.527C103.122 135.655 102.998 137.255 101.967 138.234C100.766 139.376 98.8384 139.219 97.8376 137.898Z" fill="#FFC75F"/>
<path d="M121.237 236.562L113.023 225.72C112.184 224.611 112.311 223.049 113.319 222.091C114.494 220.973 116.378 221.12 117.367 222.406L125.655 233.191C126.522 234.319 126.397 235.919 125.367 236.898C124.165 238.04 122.238 237.884 121.237 236.562Z" fill="#FFC75F"/>
<path d="M79.7561 193.094L71.5425 182.251C70.7027 181.143 70.8299 179.581 71.8377 178.622C73.0131 177.505 74.8975 177.652 75.8857 178.938L84.1743 189.723C85.0408 190.851 84.9162 192.45 83.8856 193.43C82.6844 194.572 80.7569 194.415 79.7561 193.094Z" fill="#FFC75F"/>
<path d="M109.887 178.834L110.778 165.26C110.87 163.873 111.989 162.775 113.378 162.711C114.998 162.636 116.326 163.981 116.231 165.599L115.434 179.179C115.35 180.598 114.209 181.726 112.788 181.791C111.133 181.868 109.778 180.487 109.887 178.834Z" fill="#FFC75F"/>
</svg>
