<svg width="266" height="154" viewBox="0 0 266 154" fill="none" xmlns="http://www.w3.org/2000/svg">
<g clip-path="url(#clip0_2145_575)">
<path d="M277 94.5027C277 127.364 249.108 154 214.692 154C209.027 154 203.542 153.277 198.325 151.923C224.799 145.062 244.265 121.954 244.265 94.5027C244.265 67.0512 224.799 43.9385 198.325 37.0769C203.542 35.7231 209.027 35 214.692 35C249.108 35 277 61.6414 277 94.5027Z" fill="#E9DDBA"/>
<path d="M244.265 94.5029C244.265 121.954 224.799 145.062 198.325 151.923C171.851 145.062 152.385 121.954 152.385 94.5029C152.385 67.0514 171.851 43.9387 198.325 37.0771C224.799 43.9387 244.265 67.0514 244.265 94.5029Z" fill="#F4ECD8"/>
<path d="M173.221 118.524C175.878 118.524 178.032 116.301 178.032 113.56C178.032 110.818 175.878 108.596 173.221 108.596C170.564 108.596 168.41 110.818 168.41 113.56C168.41 116.301 170.564 118.524 173.221 118.524Z" fill="#E9DDBA" stroke="#F4ECD8" strokeMiterlimit="10"/>
<path d="M186.748 81.0195C191.513 81.0195 195.377 76.8572 195.377 71.7227C195.377 66.5881 191.513 62.4258 186.748 62.4258C181.982 62.4258 178.119 66.5881 178.119 71.7227C178.119 76.8572 181.982 81.0195 186.748 81.0195Z" fill="#E9DDBA" stroke="#F4ECD8" strokeMiterlimit="10"/>
<path d="M171.48 56.4706C173.709 54.7376 175.008 52.6367 174.381 51.7782C173.754 50.9196 171.439 51.6286 169.21 53.3616C166.981 55.0946 165.682 57.1955 166.309 58.054C166.936 58.9125 169.251 58.2036 171.48 56.4706Z" fill="#E9DDBA" stroke="#F4ECD8" strokeMiterlimit="10"/>
<path d="M154.418 99.343C155.459 99.2861 156.182 96.9089 156.035 94.0333C155.887 91.1576 154.924 88.8725 153.884 88.9293C152.843 88.9862 152.12 91.3634 152.267 94.239C152.415 97.1147 153.378 99.3998 154.418 99.343Z" fill="#E9DDBA" stroke="#F4ECD8" strokeMiterlimit="10"/>
<path d="M180.537 143.227C181.274 142.467 180.271 140.2 178.297 138.164C176.324 136.127 174.127 135.093 173.39 135.853C172.653 136.613 173.656 138.88 175.63 140.916C177.603 142.953 179.8 143.987 180.537 143.227Z" fill="#E9DDBA" stroke="#F4ECD8" strokeMiterlimit="10"/>
<path d="M241.99 118.372C245.232 117.118 247.142 114.257 246.256 111.984C245.37 109.711 242.024 108.885 238.782 110.139C235.54 111.394 233.631 114.254 234.517 116.528C235.403 118.801 238.749 119.627 241.99 118.372Z" fill="#E9DDBA" stroke="#F4ECD8" strokeMiterlimit="10"/>
<path d="M210.93 97.6345C214.745 97.6345 217.838 95.0347 217.838 91.8277C217.838 88.6208 214.745 86.021 210.93 86.021C207.114 86.021 204.021 88.6208 204.021 91.8277C204.021 95.0347 207.114 97.6345 210.93 97.6345Z" fill="#E9DDBA" stroke="#F4ECD8" strokeMiterlimit="10"/>
<path d="M217.838 74.4672C219.776 74.4672 221.348 72.846 221.348 70.8462C221.348 68.8463 219.776 67.2251 217.838 67.2251C215.9 67.2251 214.329 68.8463 214.329 70.8462C214.329 72.846 215.9 74.4672 217.838 74.4672Z" fill="#E9DDBA" stroke="#F4ECD8" strokeMiterlimit="10"/>
<path d="M218.552 47.3918C219.451 45.7847 219.242 43.9233 218.085 43.2341C216.928 42.545 215.261 43.2891 214.362 44.8962C213.463 46.5033 213.672 48.3648 214.829 49.0539C215.985 49.7431 217.652 48.9989 218.552 47.3918Z" fill="#E9DDBA" stroke="#F4ECD8" strokeMiterlimit="10"/>
<path d="M206.045 131.311C209.467 131.311 212.242 128.449 212.242 124.917C212.242 121.386 209.467 118.523 206.045 118.523C202.622 118.523 199.848 121.386 199.848 124.917C199.848 128.449 202.622 131.311 206.045 131.311Z" fill="#E9DDBA" stroke="#F4ECD8" strokeMiterlimit="10"/>
</g>
<g clip-path="url(#clip1_2145_575)">
<path d="M111.971 143H111.024C111.024 138.027 107.431 134 102.995 134H103C107.436 134 111.029 129.973 111.029 125H111.975C111.975 129.973 115.568 134 120.004 134C115.568 134 111.975 138.027 111.975 143H111.971Z" fill="#F6C900"/>
</g>
<g clip-path="url(#clip2_2145_575)">
<path d="M8.97059 34H8.02433C8.02433 29.0274 4.43133 25 -0.00488281 25H-0.000198327C4.43601 25 8.02901 20.9726 8.02901 16H8.97528C8.97528 20.9726 12.5683 25 17.0045 25C12.5683 25 8.97528 29.0274 8.97528 34H8.97059Z" fill="#F6C900"/>
</g>
<path d="M54.5084 72.032L55.9022 72.4824L55.7373 72.5451L54.4822 73.0211L54.4513 74.1903L53.8421 73.2648L52.8059 73.6575L53.4647 72.6923L52.7256 71.5718L52.6285 71.4245L54.0233 71.8752L54.5313 71.1291L54.5084 72.032Z" fill="#FFB703" stroke="#FFC75F" stroke-width="4"/>
<path d="M151.656 10.3555L153.069 9.75468L152.951 9.97487L152.314 11.1567L153.107 12.1199L151.968 11.8004L151.408 12.8417L151.265 11.6028L149.973 11.2402L149.732 11.1728L151.146 10.572L151.033 9.59932L151.656 10.3555Z" fill="#FFB703" stroke="#FFC75F" stroke-width="4"/>
<defs>
<clipPath id="clip0_2145_575">
<rect width="125" height="119" fill="white" transform="translate(146 35)"/>
</clipPath>
<clipPath id="clip1_2145_575">
<rect width="17" height="18" fill="white" transform="translate(103 125)"/>
</clipPath>
<clipPath id="clip2_2145_575">
<rect width="17" height="18" fill="white" transform="translate(0 16)"/>
</clipPath>
</defs>
</svg>
